HIERARCHY
ROOT root
{
	OFFSET	0	13.1	24.9
	CHANNELS 6  Xposition Yposition Zposition Xrotation Yrotation Zrotation
	JOINT spine_1
	{
		OFFSET	0	9.99999	0
		CHANNELS 3  Xrotation Yrotation Zrotation
		JOINT spine_2
		{
			OFFSET	0	112	-10
			CHANNELS 3  Xrotation Yrotation Zrotation
			JOINT spine_3
			{
				OFFSET	0	206.5	19.3
				CHANNELS 3  Xrotation Yrotation Zrotation
				JOINT spine_4
				{
					OFFSET	0	110.4	14.6
					CHANNELS 3  Xrotation Yrotation Zrotation
					JOINT neck_1
					{
						OFFSET	0	71.8	-50.3
						CHANNELS 3  Xrotation Yrotation Zrotation
						JOINT neck_2
						{
							OFFSET	0	86.2	-25.8
							CHANNELS 3  Xrotation Yrotation Zrotation
							JOINT head_ee
							{
								OFFSET	0	179.8	-8.7
								CHANNELS 3  Xrotation Yrotation Zrotation
								End Site
								{
									OFFSET	1	0	0
								}
							}
						}
					}
					JOINT left_clavicle
					{
						OFFSET	-43.2	22.4	-70.8
						CHANNELS 3  Xrotation Yrotation Zrotation
						JOINT left_shoulder
						{
							OFFSET	-93.9	-5.79999	48.7
							CHANNELS 3  Xrotation Yrotation Zrotation
							JOINT left_elbow
							{
								OFFSET	-291.4	-30.8	15.2
								CHANNELS 3  Xrotation Yrotation Zrotation
								JOINT left_lowarm_twist
								{
									OFFSET	-110.7	-3.89999	13.6
									CHANNELS 3  Xrotation Yrotation Zrotation
									JOINT left_hand
									{
										OFFSET	-110.7	-3.89999	13.6
										CHANNELS 3  Xrotation Yrotation Zrotation
										JOINT left_ee
										{
											OFFSET	-80.8	-5.10001	12.1
											CHANNELS 3  Xrotation Yrotation Zrotation
											End Site
											{
												OFFSET	1	0	0
											}
										}
									}
								}
							}
						}
					}
					JOINT right_clavicle
					{
						OFFSET	43.2	22.4	-70.8
						CHANNELS 3  Xrotation Yrotation Zrotation
						JOINT right_shoulder
						{
							OFFSET	93.9	-5.79999	48.7
							CHANNELS 3  Xrotation Yrotation Zrotation
							JOINT right_elbow
							{
								OFFSET	291.4	-30.8	15.2
								CHANNELS 3  Xrotation Yrotation Zrotation
								JOINT right_lowarm_twist
								{
									OFFSET	110.7	-3.89999	13.6
									CHANNELS 3  Xrotation Yrotation Zrotation
									JOINT right_hand
									{
										OFFSET	110.7	-3.89999	13.6
										CHANNELS 3  Xrotation Yrotation Zrotation
										JOINT right_ee
										{
											OFFSET	80.8	-5.10001	12.1
											CHANNELS 3  Xrotation Yrotation Zrotation
											End Site
											{
												OFFSET	1	0	0
											}
										}
									}
								}
							}
						}
					}
				}
			}
		}
	}
	JOINT left_hip
	{
		OFFSET	-82.8	-127.5	0.300001
		CHANNELS 3  Xrotation Yrotation Zrotation
		JOINT left_knee
		{
			OFFSET	-28.2	-396.7	2.2
			CHANNELS 3  Xrotation Yrotation Zrotation
			JOINT left_ankle
			{
				OFFSET	-11.7	-411.3	35.4
				CHANNELS 3  Xrotation Yrotation Zrotation
				JOINT left_toes
				{
					OFFSET	0	-60	-88.6
					CHANNELS 3  Xrotation Yrotation Zrotation
					JOINT left_foot_ee
					{
						OFFSET	-22.5	-16.5	-42.2
						CHANNELS 3  Xrotation Yrotation Zrotation
						End Site
						{
							OFFSET	1	0	0
						}
					}
				}
			}
		}
	}
	JOINT right_hip
	{
		OFFSET	82.8	-127.5	0.300001
		CHANNELS 3  Xrotation Yrotation Zrotation
		JOINT right_knee
		{
			OFFSET	28.2	-396.7	2.2
			CHANNELS 3  Xrotation Yrotation Zrotation
			JOINT right_ankle
			{
				OFFSET	11.7	-411.3	35.4
				CHANNELS 3  Xrotation Yrotation Zrotation
				JOINT right_toes
				{
					OFFSET	0	-60	-88.6
					CHANNELS 3  Xrotation Yrotation Zrotation
					JOINT right_foot_ee
					{
						OFFSET	22.5	-16.5	-42.2
						CHANNELS 3  Xrotation Yrotation Zrotation
						End Site
						{
							OFFSET	1	0	0
						}
					}
				}
			}
		}
	}
}
MOTION
Frames: 12
Frame Time: 0.02
495.398 725.302 -427.538 177.562 -53.2654 172.677 -1.21833 1.10977 5.57935 -1.20134 0.753076 5.6384 -1.11171 -0.559303 5.66083 -1.15624 0.340254 5.67815 -10.3041 1.61705 -18.8868 -9.31893 15.8291 -18.2046 -0.0 0.0 -0.0 -8.53258 23.8933 -9.00867 11.1528 -6.97092 69.501 1.7332 -40.6451 0.64195 20.9293 0.256656 -2.64638 1.72928 8.62544 14.9293 -0.0 0.0 -0.0 13.178 26.6694 -26.0078 -3.78443 17.027 -70.95 0.208791 5.90518 -0.0107691 50.3152 0.991471 6.14674 -2.04524 -12.0171 8.01167 0.0 0.0 0.0 -15.1308 23.0933 2.73172 4.79609 -0.227003 -0.700612 9.66114 27.1577 -1.45613 -15.3357 0.0 0.0 -0.0 0.0 -0.0 19.9883 47.6047 -16.4137 -38.882 0.397174 -5.84114 36.9398 3.03777 4.63197 -17.2455 0.0 0.0 0.0 0.0 0.0 
495.317 725.639 -424.956 177.638 -54.4587 172.667 -1.24788 1.00812 5.4961 -1.23133 0.656898 5.54889 -1.15278 -0.636771 5.55123 -1.19567 0.246523 5.58209 -10.1257 1.66411 -19.2914 -9.08936 16.2491 -18.6359 -0.0 0.0 -0.0 -8.84344 24.0785 -9.38408 10.6771 -7.45763 70.0643 1.75275 -40.9629 0.654724 20.5507 0.26065 -2.59818 1.71238 9.56339 15.154 -0.0 0.0 -0.0 13.38 26.7258 -26.4683 -3.11501 17.1833 -71.4774 0.198002 5.60203 -0.00968746 50.6263 1.01401 6.17958 -2.10064 -11.9429 8.40239 0.0 0.0 0.0 -14.6922 22.8185 2.35161 5.28907 -0.25365 -0.771518 8.8436 26.2028 -1.32867 -15.1374 0.0 0.0 -0.0 0.0 -0.0 20.6387 46.3391 -16.6018 -39.7206 0.449087 -5.95914 36.9546 2.03315 4.62221 -18.078 0.0 0.0 0.0 0.0 0.0 
493.555 723.07 -423.51 177.647 -55.2688 172.803 -1.26091 0.981577 5.5815 -1.2438 0.625 5.63242 -1.16705 -0.688655 5.62502 -1.21111 0.20688 5.66312 -9.50566 1.36298 -19.4374 -8.42706 15.9724 -18.9653 -0.0 0.0 -0.0 -8.96015 24.4674 -9.39971 10.5773 -7.35216 70.0146 1.72561 -40.5209 0.637012 20.463 0.26153 -2.58701 1.56754 10.0506 14.3641 -0.0 0.0 -0.0 13.4693 26.673 -26.6821 -2.67124 17.2875 -71.6942 0.183642 5.19808 -0.00833605 50.762 1.0239 6.19386 -2.1866 -12.0332 8.90844 0.0 0.0 0.0 -13.986 22.7326 2.02874 5.09361 -0.243012 -0.743431 7.60555 25.8271 -1.14437 -14.9849 0.0 0.0 -0.0 0.0 -0.0 20.8389 46.2213 -17.0892 -40.0326 0.46884 -6.00284 37.3987 1.71553 4.65988 -18.0781 0.0 0.0 0.0 0.0 0.0 
492.511 721.415 -421.672 178.407 -55.0368 173.304 -1.2728 1.2354 5.63991 -1.25554 0.874615 5.70679 -1.15194 -0.460182 5.7549 -1.19784 0.452924 5.75547 -9.86382 1.36263 -19.6322 -8.77711 16.0011 -19.0965 -0.0 0.0 -0.0 -8.70858 24.013 -9.21582 10.0766 -7.19714 69.4492 1.79689 -41.6693 0.683866 20.6438 0.259697 -2.61004 1.22363 10.8098 12.3721 -0.0 0.0 -0.0 13.438 26.8371 -26.5887 -1.21672 17.5093 -72.1766 0.187067 5.29446 -0.00864919 50.9037 1.03427 6.20877 -2.57524 -14.4767 10.1435 0.0 0.0 0.0 -13.2467 22.387 1.61125 6.01696 -0.294111 -0.875793 6.27382 25.553 -0.946094 -14.2422 0.0 0.0 -0.0 0.0 -0.0 20.9981 44.6179 -16.6987 -38.416 0.36908 -5.77525 39.0757 1.59153 4.8092 -18.5275 0.0 0.0 0.0 0.0 0.0 
492.062 719.965 -415.657 177.671 -55.8451 172.994 -1.35378 1.19825 5.75778 -1.33573 0.830081 5.82206 -1.234 -0.538753 5.85609 -1.2816 0.391229 5.86775 -8.78508 1.05621 -19.6377 -7.65495 15.7576 -19.3703 -0.0 0.0 -0.0 -8.75957 24.2699 -9.19043 9.5564 -4.94654 69.2833 1.82348 -42.0874 0.701614 19.324 0.2714 -2.44187 0.760976 11.0713 9.46056 -0.0 0.0 -0.0 13.2987 26.3178 -26.3302 -0.0681529 17.7098 -72.7623 0.279855 7.89289 -0.0193065 51.0204 1.04282 6.22101 -3.35219 -16.732 13.8268 0.0 0.0 0.0 -12.23 22.3321 0.863467 6.16607 -0.302563 -0.897092 0.446248 28.9261 -0.0696585 -12.8938 0.0 0.0 -0.0 0.0 -0.0 21.3514 44.6632 -18.2357 -39.665 0.445591 -5.95134 39.9542 1.32764 4.88306 -15.9336 0.0 0.0 0.0 0.0 0.0 
494.122 722.044 -413.391 177.553 -57.7306 173.127 -1.32963 1.05244 5.61405 -1.31237 0.693663 5.6694 -1.22769 -0.636083 5.67612 -1.27252 0.266831 5.70532 -8.1818 0.267734 -19.3351 -7.07129 14.2555 -19.3245 -0.0 0.0 -0.0 -8.70315 24.3122 -9.09384 8.1077 -6.11588 69.4524 1.76728 -41.197 0.664269 18.1452 0.278575 -2.29148 0.336445 13.6781 7.73865 -0.0 0.0 -0.0 13.3479 26.5032 -26.4215 0.493355 17.8119 -72.5065 0.29704 8.3709 -0.0217375 51.5537 1.08227 6.27677 -3.6807 -19.0033 14.5578 0.0 0.0 0.0 -11.2998 21.6605 -0.150982 6.33521 -0.312218 -0.921226 1.79307 29.0308 -0.279251 -10.2832 0.0 0.0 -0.0 0.0 -0.0 19.4401 43.8604 -16.7928 -37.3547 0.307107 -5.62438 39.4019 2.15445 4.84347 -13.0672 0.0 0.0 0.0 0.0 0.0 
497.055 722.815 -413.628 177.399 -59.9802 173.203 -1.37834 0.959023 5.60579 -1.36107 0.600953 5.65523 -1.28584 -0.729178 5.64018 -1.33016 0.169245 5.68446 -10.7703 0.0239033 -17.7736 -9.90139 11.9434 -17.3829 -0.0 0.0 -0.0 -8.13876 23.2539 -8.67628 6.79695 -6.38186 69.6535 1.64821 -39.2276 0.587384 17.2477 0.281962 -2.1769 -0.226886 13.5829 4.1549 -0.0 0.0 -0.0 13.0682 26.4022 -25.7867 1.50268 18.3664 -72.0455 0.340245 9.56733 -0.0284736 53.0308 1.19423 6.42926 -3.46174 -20.6501 12.2357 0.0 0.0 0.0 -9.89517 20.8241 -1.0841 6.25401 -0.307574 -0.909643 2.09611 28.8181 -0.325764 -9.39513 0.0 0.0 -0.0 0.0 -0.0 19.1987 44.5737 -17.3715 -36.6506 0.267546 -5.52368 35.7745 -1.98789 4.48128 -10.0774 0.0 0.0 0.0 0.0 0.0 
502.023 724.495 -412.244 176.503 -62.1604 172.563 -1.34491 0.871166 5.24631 -1.32977 0.536043 5.29094 -1.26653 -0.705858 5.27103 -1.30525 0.134243 5.31626 -10.4911 -0.62739 -18.7767 -9.50893 11.4905 -18.5736 -0.0 0.0 -0.0 -7.95079 23.5463 -8.30089 5.58179 -6.61617 70.143 1.73256 -40.6346 0.64153 15.848 0.283662 -1.99813 -0.782107 16.5951 1.96506 -0.0 0.0 -0.0 12.9703 26.0799 -25.599 0.723832 17.9147 -71.4196 0.414243 11.5965 -0.0420648 53.5133 1.23165 6.47846 -3.69585 -20.2743 13.8868 0.0 0.0 0.0 -9.35704 20.6422 -1.60133 6.71904 -0.334393 -0.975887 -2.67152 29.3021 0.420694 -9.75289 0.0 0.0 -0.0 0.0 -0.0 18.9277 45.8867 -18.4091 -37.4213 0.310917 -5.63388 36.0181 -2.55068 4.50195 -6.69026 0.0 0.0 0.0 0.0 0.0 
507.314 727.07 -410.762 176.434 -63.1863 172.806 -1.29233 0.825617 5.11008 -1.27795 0.499219 5.1521 -1.2203 -0.705352 5.12801 -1.25695 0.11225 5.17495 -10.8681 -1.36767 -18.6355 -9.90368 9.88491 -18.5546 -0.0 0.0 -0.0 -7.67179 23.9114 -7.7752 4.53705 -6.49315 70.5301 1.56752 -37.8268 0.537122 14.5577 0.28136 -1.83334 -1.29567 17.7467 -0.656228 -0.0 0.0 -0.0 13.0248 25.8828 -25.7482 0.799316 17.8687 -70.3606 0.457832 12.7785 -0.0512675 54.3675 1.29892 6.56477 -3.45733 -20.0276 12.5734 0.0 0.0 0.0 -9.11219 20.2702 -2.54098 6.20897 -0.305005 -0.903215 1.89917 28.7879 -0.295233 -8.86022 0.0 0.0 -0.0 0.0 -0.0 18.7714 43.3268 -17.9818 -38.1141 0.351168 -5.73245 34.179 -3.62486 4.32074 -4.34974 0.0 0.0 0.0 0.0 0.0 
516.232 724.882 -413.436 174.161 -64.7057 170.159 -1.71549 0.941586 4.9584 -1.70204 0.624568 5.0081 -1.63341 -0.585767 5.01277 -1.66839 0.212218 5.04234 -11.539 -1.76014 -18.5688 -10.5881 8.88725 -18.5069 -0.0 0.0 -0.0 -7.01134 24.1661 -6.76053 3.31657 -6.39429 70.3893 1.59796 -38.3616 0.555898 12.9434 0.273256 -1.62733 -2.16009 21.8627 -3.85145 -0.0 0.0 -0.0 12.8121 26.4656 -25.1885 0.395898 17.8911 -68.5164 0.521442 14.4835 -0.0662599 54.6937 1.32495 6.59747 -2.98023 -18.0758 10.7517 0.0 0.0 0.0 -8.38964 19.3298 -2.41859 0.695228 -0.0292518 -0.102676 10.9561 26.3779 -1.63703 -9.02483 0.0 0.0 -0.0 0.0 -0.0 18.32 41.4596 -17.4605 -40.6786 0.510506 -6.09301 34.0941 -3.58869 4.31247 -2.84113 0.0 0.0 0.0 0.0 0.0 
523.684 723.137 -411.966 171.942 -65.6481 168.765 -1.6909 1.03682 4.62427 -1.67931 0.740793 4.6807 -1.60618 -0.39208 4.72262 -1.63711 0.357833 4.72533 -12.8329 -2.45033 -18.4891 -11.896 7.10873 -18.486 -0.0 0.0 -0.0 -7.1662 24.4917 -6.86956 1.4044 -6.64661 70.9585 1.54719 -37.465 0.524701 12.7574 0.27195 -1.6036 -2.17848 21.0255 -4.37661 -0.0 0.0 -0.0 12.8018 26.0356 -25.2157 0.748929 18.0464 -67.3364 0.491487 13.6837 -0.0589706 55.0635 1.35468 6.63436 -2.65061 -15.2897 10.1943 0.0 0.0 0.0 -8.00012 19.3283 -4.30767 -1.75635 0.0683224 0.260869 14.1744 22.978 -2.05749 -9.79798 0.0 0.0 -0.0 0.0 -0.0 16.4729 42.4264 -18.0285 -39.7045 0.448073 -5.95688 33.5145 -3.33019 4.2557 -0.498314 0.0 0.0 0.0 0.0 0.0 
528.519 723.009 -407.626 167.872 -66.6169 165.069 -2.11423 1.04629 4.7278 -2.10211 0.743677 4.78462 -2.02538 -0.449376 4.82109 -2.05766 0.316749 4.83159 -14.3935 -2.10259 -18.3134 -13.4893 7.1482 -18.1081 -0.0 0.0 -0.0 -7.00309 24.2993 -6.70574 1.44573 -6.72242 70.9642 1.39502 -34.6445 0.435114 12.7495 0.271892 -1.60259 -2.51637 23.3908 -5.13923 -0.0 0.0 -0.0 12.6249 26.2297 -24.7858 1.70399 18.5925 -66.7408 0.613578 16.9067 -0.09119 55.5066 1.39061 6.67831 -2.33812 -14.5022 8.63382 0.0 0.0 0.0 -7.96344 18.8068 -5.1312 -4.44385 0.157289 0.663689 20.7371 22.0078 -2.92016 -9.77735 0.0 0.0 -0.0 0.0 -0.0 12.9346 41.3191 -17.0977 -39.6546 0.444941 -5.94988 34.7804 -2.68039 4.38269 0.810913 -0.0 -0.0 0.0 0.0 0.0 
